<svg version="1.1" id="Layer_1" xmlns="http://www.w3.org/2000/svg" xmlns:xlink="http://www.w3.org/1999/xlink" x="0px" y="0px"
	 width="100%" viewBox="200 780 1650 350" enable-background="new 200 780 1650 350" xml:space="preserve">
<path fill="#FDFDFD" opacity="1.000000" stroke="none" 
	d="
M740.842651,969.803528 
	C741.081665,974.444214 741.520508,979.084473 741.528381,983.725586 
	C741.597046,1024.372314 741.592896,1065.019165 741.591003,1105.665894 
	C741.590942,1107.645142 741.410522,1109.624390 741.317810,1111.527466 
	C733.998474,1113.652954 674.571838,1114.463379 658.352478,1112.548828 
	C657.742310,1008.013306 658.008789,903.317078 658.173279,798.083557 
	C686.165894,798.083557 713.356384,798.083557 741.506226,798.083557 
	C763.899658,846.034973 786.440308,894.301514 808.980896,942.568054 
	C809.711121,942.439087 810.441284,942.310059 811.171509,942.181030 
	C811.171509,894.259949 811.171509,846.338928 811.171509,797.995361 
	C839.049194,797.995361 865.594971,797.995361 892.866211,797.995361 
	C892.866211,902.738647 892.866211,1007.189331 892.866211,1112.522583 
	C890.179626,1112.779907 887.287109,1113.280396 884.391602,1113.298584 
	C862.735962,1113.435181 841.072571,1113.185669 819.428101,1113.723267 
	C812.867920,1113.886230 810.159485,1111.120117 807.657837,1105.726318 
	C786.805786,1060.766724 765.714233,1015.918396 744.495544,969.703979 
	C743.186035,967.587280 742.075867,966.803040 740.965698,966.018799 
	C740.924683,967.280396 740.883667,968.541931 740.842651,969.803528 
z"/>
<path fill="#FDFDFD" opacity="1.000000" stroke="none" 
	d="
M1128.234009,802.602417 
	C1128.251465,828.152344 1128.251465,852.753418 1128.251465,878.079041 
	C1115.536865,880.005310 1103.428589,881.906433 1091.299561,883.663269 
	C1066.928101,887.193359 1042.543823,890.634827 1018.169800,894.147095 
	C1016.202698,894.430542 1014.280457,895.012512 1012.325378,895.394714 
	C1008.328247,896.176270 1005.565918,898.064697 1005.457764,902.586670 
	C1005.343933,907.351379 1007.601501,910.656311 1012.931763,911.632263 
	C1022.416687,913.369080 1031.993164,914.616455 1041.543457,915.983826 
	C1070.142944,920.078430 1098.748535,924.132019 1127.773438,928.261536 
	C1127.773438,949.612061 1127.773438,970.470215 1127.773438,991.919861 
	C1114.717285,993.903564 1101.945190,995.913574 1089.151245,997.773071 
	C1065.110596,1001.267212 1041.057373,1004.674377 1017.009338,1008.117310 
	C1016.679626,1008.164612 1016.346252,1008.191345 1016.019470,1008.253540 
	C1008.222839,1009.739258 1005.710510,1011.777222 1005.569092,1016.725098 
	C1005.409973,1022.292664 1008.232178,1025.000977 1016.052917,1026.125610 
	C1048.661987,1030.814575 1081.286255,1035.397339 1113.901978,1040.040894 
	C1118.452881,1040.688843 1122.986450,1041.458008 1127.862305,1042.223389 
	C1127.862305,1065.379639 1127.862305,1087.962036 1127.862305,1111.901123 
	C1068.864258,1112.524048 1009.808960,1111.806396 950.057129,1112.174805 
	C950.057129,1007.464661 950.057129,903.439148 950.057129,798.868835 
	C953.029541,798.715637 955.605774,798.468811 958.182190,798.466858 
	C1011.810486,798.425476 1065.438843,798.372009 1119.066772,798.493896 
	C1122.225464,798.501099 1126.750610,796.121948 1128.234009,802.602417 
z"/>
<path fill="#FCFCFC" opacity="1.000000" stroke="none" 
	d="
M227.724121,988.396790 
	C208.226746,899.245850 268.849121,811.371277 358.155579,798.374939 
	C363.419312,797.609009 368.763031,797.024475 374.072327,797.001404 
	C404.008728,796.871094 433.946014,796.938477 463.861694,796.938477 
	C466.042297,804.046387 466.721436,853.135620 464.909882,878.524597 
	C461.572174,878.759521 458.061279,879.206665 454.548553,879.221558 
	C430.897400,879.321838 407.233154,879.839722 383.597473,879.248962 
	C348.286194,878.366272 310.324341,903.825562 306.898956,950.825256 
	C304.772827,979.998352 318.042999,1003.757812 343.737366,1019.315674 
	C355.662354,1026.536255 368.737793,1030.046753 382.715881,1030.094482 
	C406.700195,1030.176392 430.684479,1030.282104 454.668762,1030.373657 
	C457.913483,1030.385986 461.158295,1030.375244 464.957245,1030.375244 
	C464.957245,1057.867798 464.957245,1084.337280 464.957245,1111.635864 
	C461.508820,1111.836426 458.302368,1112.180908 455.095520,1112.184814 
	C430.111359,1112.215210 405.122894,1112.470703 380.143768,1112.106812 
	C321.410767,1111.250977 277.159882,1084.766602 246.159241,1035.391479 
	C237.225113,1021.161987 231.484787,1005.596619 227.724121,988.396790 
z"/>
<path fill="#FDFDFD" opacity="1.000000" stroke="none" 
	d="
M1690.034424,1101.999756 
	C1641.348999,1081.270142 1609.252441,1046.435913 1595.251343,995.996826 
	C1571.395752,910.057007 1625.050293,820.885437 1711.437988,800.880066 
	C1723.673340,798.046570 1736.469482,796.789734 1749.048950,796.465515 
	C1774.350708,795.813477 1799.682129,796.302002 1825.001221,796.343750 
	C1826.288696,796.345886 1827.575928,796.571960 1829.568359,796.760376 
	C1829.568359,823.779724 1829.568359,850.568481 1829.568359,878.495544 
	C1825.989746,878.716003 1822.166138,879.131531 1818.339844,879.158081 
	C1793.688354,879.329163 1769.027832,879.055847 1744.386597,879.630981 
	C1720.068115,880.198547 1700.833374,891.434631 1686.944336,910.942505 
	C1669.925781,934.846313 1667.059326,960.849365 1680.135132,987.389343 
	C1693.103760,1013.711853 1714.957153,1028.365112 1744.290283,1029.729858 
	C1769.227905,1030.890015 1794.250366,1030.225586 1819.235352,1030.362793 
	C1822.504028,1030.380737 1825.772949,1030.365234 1829.664551,1030.365234 
	C1829.664551,1057.533813 1829.664551,1084.025879 1829.664551,1111.552856 
	C1827.061768,1111.743896 1824.212769,1112.130005 1821.363403,1112.134644 
	C1795.710693,1112.175293 1770.056519,1111.981079 1744.405762,1112.198730 
	C1725.833130,1112.356323 1708.037231,1108.858887 1690.034424,1101.999756 
z"/>
<path fill="#FCFCFC" opacity="1.000000" stroke="none" 
	d="
M1297.923828,951.546265 
	C1313.180054,949.857178 1325.948608,944.289001 1335.300903,933.130981 
	C1347.611328,918.443726 1350.986572,901.559753 1342.807129,883.776489 
	C1334.267944,865.211304 1319.905762,853.535950 1298.904541,852.397461 
	C1291.023438,851.970276 1282.955078,853.322327 1275.088989,854.589172 
	C1245.837769,859.300171 1216.635864,864.316956 1187.410034,869.186035 
	C1186.800171,869.287659 1186.124146,868.992004 1184.814453,868.767944 
	C1184.814453,845.081421 1184.814453,821.282776 1184.814453,796.846497 
	C1186.787598,796.638062 1188.678223,796.265015 1190.569214,796.264099 
	C1229.897339,796.245056 1269.231934,795.863281 1308.550293,796.490417 
	C1323.451782,796.728149 1338.702881,797.690735 1353.122437,801.136169 
	C1391.979004,810.420654 1415.068237,835.681274 1422.461914,874.986572 
	C1426.641724,897.207092 1426.174316,919.401001 1419.829834,941.156433 
	C1410.744507,972.310730 1390.603149,993.225891 1359.251587,1001.860168 
	C1346.230957,1005.446045 1332.467529,1007.066406 1318.938965,1007.889587 
	C1302.384888,1008.897034 1285.722656,1008.129639 1267.710327,1008.129639 
	C1267.623291,1025.987183 1267.507568,1043.161011 1267.465210,1060.335205 
	C1267.423462,1077.246948 1267.456055,1094.158936 1267.456055,1111.680298 
	C1239.625488,1111.680298 1212.755005,1111.680298 1185.846313,1111.680298 
	C1183.707764,1104.791992 1183.239014,946.975769 1185.448242,936.244873 
	C1222.640747,941.332581 1259.864136,946.424500 1297.923828,951.546265 
z"/>
<path fill="#FBFBFB" opacity="1.000000" stroke="none" 
	d="
M520.105591,812.158081 
	C520.105286,807.211243 520.105286,803.245239 520.105286,797.937622 
	C547.915955,797.391785 575.276917,797.521851 603.178955,797.875854 
	C603.178955,903.044861 603.178955,1007.447144 603.178955,1112.691406 
	C575.614502,1112.691406 548.497192,1112.691406 520.105835,1112.691406 
	C520.105835,1012.725525 520.105835,912.932251 520.105591,812.158081 
z"/>
<path fill="#FEFEFF" opacity="1.000000" stroke="none" 
	d="
M1548.301270,962.000122 
	C1548.301392,1012.269043 1548.301392,1061.537964 1548.301392,1111.532227 
	C1520.577637,1111.532227 1493.498779,1111.532227 1465.845703,1111.532227 
	C1465.845703,1007.177368 1465.845703,903.029541 1465.845703,798.228882 
	C1492.895264,798.228882 1520.014282,798.228882 1548.301025,798.228882 
	C1548.301025,852.620789 1548.301025,906.810425 1548.301270,962.000122 
z"/>
</svg>
